<svg width="64" height="64" viewBox="0 0 64 64" fill="none" xmlns="http://www.w3.org/2000/svg">
<rect width="64" height="64" rx="32" fill="#009966"/>
<path d="M30.875 8.79371C28.85 8.94371 27.6375 9.13121 26.0312 9.53746C24.4062 9.94996 23.6562 10.2187 22.2437 10.9C19.45 12.25 16.7437 14.1687 15.05 16.0187C12.3 19.0125 10.4437 22.3687 9.5625 25.9625C8.99375 28.275 8.85 29.5375 8.84375 32.0625C8.84375 34.2937 8.8875 34.7687 9.25625 36.525C9.74375 38.8125 10.3312 40.4875 11.3687 42.5375C13.125 46.0187 15.6062 48.8562 18.9 51.15C22.1375 53.4125 25.6437 54.6687 30.05 55.1562C31.3312 55.3 33.5 55.2625 34.85 55.0687C39.7125 54.3875 43.4937 52.7125 47.1562 49.6312C48.6562 48.3687 50.425 46.3312 51.4125 44.7375C52.6625 42.7125 53.4875 41.0187 54.0375 39.325C55.4812 34.8937 55.625 30.5812 54.4687 26C54.0625 24.3937 53.3062 22.4375 52.5125 20.9375C51.225 18.5062 48.975 15.775 46.875 14.0812C44.9625 12.5437 41.8062 10.75 39.7437 10.0312C38.6875 9.66246 36.6375 9.18121 35.375 8.99996C33.9812 8.80621 31.9687 8.71246 30.875 8.79371ZM34.1125 11.2812C35.4062 11.4187 36.3187 11.5875 37.4375 11.9062C39.9125 12.6125 41.4125 13.2937 43.5625 14.7125C45.125 15.7437 46.1875 16.6562 47.3875 18C48.7625 19.5312 49.2437 20.2 50.125 21.7812C51.2125 23.75 51.7937 25.325 52.3125 27.75C52.6625 29.3875 52.7125 29.9375 52.7187 31.9375C52.7187 33.65 52.7062 33.8625 52.5437 34.9062C52.0437 38.15 50.8312 41.2875 49.1437 43.7375C47.7937 45.6937 46.6 46.9812 44.75 48.4625C42.8937 49.9437 40.675 51.125 38.3375 51.8687C36.5125 52.4562 35.0562 52.6812 32.7812 52.7312C29.7187 52.8 27.9875 52.5562 25.375 51.6937C21.4062 50.3812 18.025 47.925 15.4187 44.4625C14.075 42.6812 13.1875 40.9875 12.3812 38.6937C12 37.6062 11.8687 37.1 11.6 35.5625C11.125 32.8875 11.15 30.85 11.6937 27.825C12.1375 25.35 13.4187 22.2312 14.8 20.25C15.7375 18.9187 17.2125 17.2437 18.2437 16.3625C20.05 14.8062 21.5312 13.8562 23.4562 13.0062C25.3687 12.1562 28.1312 11.4312 30.125 11.2562C31.1312 11.1687 33.125 11.1812 34.1125 11.2812Z" fill="white"/>
<path d="M31.6563 14.0438C30.8813 14.15 29.8375 14.7313 29.425 15.2813C28.9438 15.9188 28.8063 16.2938 28.7313 17.1125C28.675 17.7688 28.6813 17.9 28.775 18.1938C29.0125 18.9063 29.25 19.3 29.7063 19.725C30.4813 20.4438 31.0563 20.65 32.1375 20.6188C32.8188 20.5938 32.8625 20.5813 33.3938 20.3313C34.35 19.8688 34.9125 19.1938 35.2438 18.1C35.35 17.7625 35.3688 17.5813 35.3375 17.2563C35.2125 15.9938 34.5438 14.9375 33.5563 14.4375C33.0063 14.1563 32.1313 13.975 31.6563 14.0438Z" fill="white"/>
<path d="M28.6874 20.7125C28.0249 20.9 26.6062 21.6 25.4999 22.2812C24.4937 22.9062 22.6687 24.8687 22.1812 25.8562C21.9624 26.2937 21.9562 26.4625 22.1499 27.625C22.2812 28.3875 22.2499 29.0062 22.0687 29.5312C21.8999 30 21.4062 30.775 21.0312 31.1562C20.4937 31.7 20.1187 31.8875 18.5374 32.4C18.1687 32.5187 18.0687 32.7 17.9312 33.5062C17.7062 34.825 17.6374 38.8 17.8312 39.4812C18.0499 40.2437 18.7812 41.1187 19.5437 41.5125C20.1999 41.8625 20.6624 41.9562 21.4062 41.9062C22.1812 41.85 22.2687 41.8187 22.3999 41.5312C22.4999 41.325 22.4999 41.2937 22.4124 41.1687C21.7624 40.2875 21.2812 39.3375 20.9999 38.3875C20.8187 37.8 20.8062 37.625 20.9312 37.625C20.9562 37.625 21.1249 37.9 21.3124 38.2312C21.4937 38.5687 21.7687 39.025 21.9312 39.25C22.2812 39.7562 23.8999 41.3687 24.5187 41.8312C25.0624 42.2437 26.4249 43.0812 27.0437 43.4C27.2874 43.5187 27.5562 43.7062 27.6499 43.8125C27.8124 44.0062 27.8124 44.025 27.8062 44.8937C27.8062 45.3812 27.7812 46.2312 27.7562 46.7812C27.7124 47.6937 27.7187 47.8125 27.8312 48.1187C28.0374 48.6875 28.2687 48.8812 29.0437 49.1437C30.0562 49.4875 30.4124 49.5312 32.0624 49.5312C33.6999 49.5312 34.1999 49.4625 35.0624 49.1062C35.6749 48.8562 35.8374 48.7375 36.0437 48.3875C36.2124 48.1062 36.2187 48.0625 36.2187 47.25C36.2124 46.7875 36.1999 45.8687 36.1874 45.2187C36.1749 44.5625 36.1812 43.9687 36.2124 43.8875C36.2437 43.7875 36.4874 43.6312 37.0749 43.3375C38.5187 42.6187 39.9375 41.575 41.2 40.3C41.675 39.825 42.6875 38.3875 42.9125 37.875C43.0437 37.5812 43.125 37.5562 43.125 37.8062C43.125 38.3 42.3937 39.9812 41.7875 40.8812C41.3 41.6062 41.5937 41.9187 42.7437 41.8875C43.7687 41.8562 44.625 41.5 45.3187 40.8062C46.2 39.9312 46.25 39.7187 46.25 36.7812C46.25 34.9437 46.2312 34.4562 46.125 33.7375C46.0562 33.2625 45.9625 32.7937 45.9062 32.6875C45.7937 32.4687 45.775 32.4562 44.8125 32.1625C43.975 31.9062 43.2 31.4625 42.8625 31.05C42.5 30.6062 42.0187 29.8375 41.9062 29.5187C41.7312 29.0125 41.7187 28.3125 41.8687 27.5375C42.0562 26.5687 42.0437 26.325 41.7812 25.8187C41.3125 24.925 39.5625 23 38.7187 22.45C37.3999 21.5875 35.3187 20.625 34.7749 20.625C34.6874 20.625 34.2999 20.7625 33.9124 20.9312C33.0437 21.3187 32.8187 21.3687 31.9999 21.375C31.1812 21.375 30.7124 21.2625 29.9999 20.9062C29.3999 20.6062 29.1937 20.575 28.6874 20.7125ZM37.4062 24.6C37.7874 24.8937 38.2437 25.2812 38.4187 25.4562C39.15 26.1687 40.0375 27.6562 40.4062 28.7875C40.75 29.8312 41.0062 30.275 41.5812 30.8312L42.0812 31.3187L42.0437 32.1187C41.9875 33.1187 41.8875 33.6937 41.5937 34.6875C40.9375 36.8937 39.5375 38.7187 37.4374 40.125C36.0499 41.05 35.9874 41.1062 35.6562 41.7375C35.2562 42.5187 34.5749 43.2437 33.9437 43.5562C32.7124 44.1812 31.7374 44.2062 30.3937 43.6625C30.0999 43.5375 29.7437 43.3625 29.6062 43.2687C29.2187 43 28.6374 42.2687 28.3999 41.75C28.2812 41.4937 28.1374 41.2312 28.0749 41.1625C28.0187 41.1 27.5624 40.775 27.0624 40.45C25.0374 39.1312 24.2124 38.25 23.1499 36.2812C22.6374 35.3375 22.5937 35.2187 22.3499 34.1875C21.8312 32 21.8187 31.4812 22.2624 31.0812C22.9187 30.4875 23.1187 30.1437 23.5374 28.9062C23.9812 27.5812 24.6249 26.4687 25.4624 25.5687C25.6374 25.3812 26.1499 24.9625 26.5937 24.6312C27.5937 23.8875 27.7124 23.8125 27.8687 23.8125C28.0124 23.8125 28.0312 23.9 28.1249 25.2187C28.2124 26.4562 28.2687 26.6562 28.5749 26.875C28.9499 27.15 29.1062 27.1562 29.6624 26.9437C30.3249 26.6937 31.1999 26.5437 32.0312 26.5375C32.8812 26.5375 33.4749 26.6375 34.2687 26.9187C34.8812 27.1375 34.8874 27.1375 35.1499 27.0375C35.2999 26.9812 35.4812 26.8687 35.5562 26.7937C35.7249 26.6062 35.8999 25.8 35.9999 24.75C36.0999 23.6625 36.0749 23.7125 36.4249 23.9062C36.5874 23.9937 37.0312 24.3062 37.4062 24.6Z" fill="white"/>
<path d="M31.25 36.9563C30.2312 37.2625 29.475 37.875 29.0875 38.7188C28.7812 39.3813 28.7312 39.7625 28.8437 40.525C28.9625 41.3188 29.2375 41.875 29.7687 42.4188C30.1937 42.8563 30.6062 43.0688 31.3062 43.2188C32.1812 43.4 32.875 43.3063 33.625 42.8938C34.4312 42.4563 34.6187 42.2313 35.0375 41.2438C35.2312 40.7875 35.25 40.6813 35.25 40.1313C35.25 39.0188 34.9875 38.3938 34.2375 37.7188C33.6375 37.1813 33.0125 36.9188 32.1875 36.8563C31.8062 36.825 31.6312 36.8438 31.25 36.9563Z" fill="white"/>
<path d="M17.55 25.0625C17.1563 25.1484 17.0859 25.1953 16.6813 25.4062C15.7813 26 15.45 26.4062 15.1563 27.2687C15.0313 27.6562 15 27.8625 15 28.3937C15 29.0437 15 29.0562 15.2813 29.6062C15.975 31 17.4187 31.7625 18.8188 31.475C19.6938 31.2937 20.4813 30.8 20.9125 30.1625C21.2063 29.725 21.5 28.7937 21.5 28.2875C21.5 27.8687 21.325 27.0812 21.1438 26.7C20.9938 26.3812 20.225 25.6312 19.8313 25.4187C19.175 25.0687 18.5063 24.9625 17.55 25.0625Z" fill="white"/>
<path d="M44.8438 25.15C44.0375 25.4125 43.425 25.8812 42.975 26.5812C42.6563 27.0812 42.4969 27.6062 42.5282 28.5312C42.5469 29.2375 42.6063 29.3125 42.8063 29.7125C43.0688 30.25 43.7 30.9 44.225 31.175C44.7688 31.4563 45.35 31.5813 46.0313 31.55C46.525 31.5312 46.65 31.5 47.0813 31.2875C47.8 30.9437 48.3688 30.3812 48.7063 29.6937L48.9688 29.1562C48.9688 29.1562 49.1094 28.6273 49.1094 28.2812C49.1094 27.9352 48.9688 27.4062 48.9688 27.4062L48.7375 26.9375C47.9813 25.3937 46.3688 24.6562 44.8438 25.15Z" fill="white"/>
</svg>
